<svg width="30" height="32" viewBox="0 0 30 32" fill="none" xmlns="http://www.w3.org/2000/svg">
<path fill-rule="evenodd" clip-rule="evenodd" d="M3.41827 2.66003C3.5026 3.52792 3.5846 4.34837 3.66462 5.12761C3.90097 4.98512 4.13664 4.85045 4.37154 4.72345C4.33642 4.53103 4.30093 4.33668 4.26507 4.14031C4.17077 3.62394 4.51723 3.12967 5.03889 3.03633C5.56056 2.94299 6.0599 3.28592 6.1542 3.80229C6.15968 3.8323 6.16515 3.86225 6.17062 3.89216C9.51321 2.6096 12.6022 2.88149 15.1068 4.16116C17.0055 5.13125 18.5293 6.66024 19.5632 8.45412C18.461 6.23652 16.6112 4.30701 14.1338 3.12793C11.3682 1.81165 7.75301 1.40006 3.41827 2.66003ZM9.59261 22.9159C13.7434 22.314 16.3056 20.655 17.7119 18.6857C19.2222 16.5707 19.5008 13.9582 18.8103 11.5499C18.1179 9.1353 16.4689 6.99556 14.2263 5.84973C12.1622 4.79511 9.52311 4.54492 6.51909 5.8024C7.25236 9.82626 7.83386 13.0466 8.45118 16.5C8.83438 16.1973 9.39461 16.2281 9.74112 16.5849C10.0743 16.9279 10.8777 17.3185 11.8313 17.3609C12.7411 17.4013 13.648 17.1197 14.302 16.3193C14.6354 15.9113 15.2397 15.848 15.6519 16.178C16.0641 16.508 16.128 17.1062 15.7947 17.5142C14.6758 18.8837 13.1222 19.3204 11.7452 19.2592C10.6295 19.2096 9.53046 18.8298 8.76488 18.2577C9.02516 19.7181 9.29676 21.247 9.59261 22.9159ZM4.73344 6.70845C4.45436 6.87475 4.17252 7.05426 3.88813 7.24753C4.36197 11.6216 4.77035 14.6322 5.19666 17.7751C5.43392 19.5242 5.67673 21.3142 5.93946 23.4029C6.10605 23.2511 6.32727 23.1566 6.57151 23.1521C6.9502 23.1451 7.3189 23.1307 7.67778 23.1091C6.58759 16.9601 5.82522 12.7039 4.73344 6.70845ZM5.44622 24.972C5.36254 25.0084 5.27216 25.0335 5.17679 25.0451C4.65062 25.1091 4.17165 24.7388 4.10696 24.218C3.82123 21.9175 3.55746 19.9722 3.29897 18.0658C2.90191 15.1375 2.51732 12.301 2.0847 8.41024C1.77861 8.43678 1.46504 8.31768 1.25621 8.06422C0.921158 7.65758 0.982582 7.05907 1.3934 6.72742C1.55005 6.60097 1.7065 6.47805 1.86274 6.35863C1.76099 5.3926 1.6562 4.36252 1.54765 3.25499C1.12796 3.29326 0.717432 3.05262 0.561782 2.64327C0.375046 2.15216 0.625872 1.6042 1.12202 1.41936C6.59704 -0.620366 11.3223 -0.318687 14.9657 1.41536C18.5952 3.14277 21.0669 6.25352 22.1044 9.67617C23.1414 13.0972 22.7565 16.8768 20.6047 19.9097C19.4406 21.5504 17.7876 22.9338 15.6319 23.9189C15.6407 23.9928 15.6505 24.0746 15.6612 24.1633C15.7105 24.5718 15.7792 25.1225 15.8571 25.6933C15.8908 25.9406 15.9261 26.1901 15.962 26.4325C16.3599 26.1048 16.7633 25.865 17.1739 25.7142C17.9631 25.4242 18.7064 25.4907 19.3394 25.7788C19.9435 26.0538 20.4025 26.5081 20.7295 26.9404C21.0597 27.3769 21.2964 27.845 21.4386 28.2282C21.5328 28.4819 21.5133 28.7633 21.3851 29.0019C21.2569 29.2406 21.032 29.4139 20.7669 29.4784C19.372 29.818 18.0844 30.0053 17.0752 30.0088C16.5758 30.0105 16.093 29.9678 15.683 29.8472C15.3057 29.7363 14.7736 29.4938 14.528 28.9346C14.4515 28.7605 14.3952 28.5425 14.3526 28.3571C14.3057 28.1527 14.2592 27.912 14.2142 27.6555C14.124 27.1414 14.034 26.5294 13.9546 25.9476C13.8892 25.4685 13.8304 25.0045 13.7837 24.6244C12.6384 24.9833 11.3804 25.2451 10.0081 25.3949C9.991 25.7526 9.76971 26.0718 9.44036 26.217C9.39594 26.3128 9.34928 26.4066 9.30092 26.498C9.70946 26.4938 10.0848 26.5381 10.4267 26.634C11.2115 26.854 11.7626 27.3318 12.0739 27.9583C12.367 28.5482 12.4145 29.1998 12.3675 29.7673C12.3198 30.3434 12.1686 30.9085 11.987 31.3852C11.8969 31.6216 11.7155 31.8127 11.4828 31.9163C11.2501 32.02 10.9853 32.0276 10.7469 31.9376C9.76037 31.5653 8.95013 31.206 8.20066 30.6934C7.44493 30.1765 6.79467 29.5343 6.07813 28.6424C5.75337 28.2381 5.81434 27.6511 6.21541 27.3207C6.47635 27.1058 6.90878 26.6754 7.2817 26.1373C7.4189 25.9394 7.54007 25.7383 7.64061 25.5382C7.20022 25.5448 6.7498 25.5411 6.28929 25.5268C5.91244 25.5151 5.59318 25.2898 5.44622 24.972ZM8.50503 28.4867C8.77073 28.7414 9.02716 28.9489 9.29193 29.13C9.6289 29.3605 9.99531 29.5592 10.4385 29.7582C10.4449 29.7091 10.4502 29.6603 10.4542 29.612C10.485 29.2404 10.4369 28.9692 10.3513 28.797C10.2839 28.6614 10.1732 28.5379 9.90348 28.4623C9.63613 28.3873 9.19443 28.3578 8.50503 28.4867ZM16.9496 28.1078C16.9879 28.1084 17.0276 28.1087 17.0686 28.1085C17.6005 28.1067 18.2731 28.0388 19.0456 27.901C18.8787 27.7161 18.7053 27.5817 18.5374 27.5053C18.3483 27.4193 18.1337 27.3885 17.8419 27.4957C17.6147 27.5791 17.3145 27.7572 16.9496 28.1078ZM26.6731 3.71143C28.0691 3.71143 29.2362 5.10692 29.4462 6.2352C29.6562 7.36347 29.2362 8.5135 28.4563 9.14496C27.6764 9.77641 27.1393 9.88872 26.2238 9.85755C25.1379 9.82057 24.1669 9.33693 23.6869 8.45412C23.207 7.57131 23.2182 6.31168 23.8969 5.25538C24.4501 4.39433 25.2771 3.71143 26.6731 3.71143ZM10.7589 8.66255C11.289 8.66255 11.7188 9.08793 11.7188 9.61267C11.7188 10.2916 11.912 11.1273 12.0089 11.45C12.16 11.953 11.8705 12.482 11.3624 12.6315C10.8543 12.781 10.3199 12.4945 10.1688 11.9915C10.0458 11.5819 9.79903 10.549 9.79903 9.61267C9.79903 9.08793 10.2288 8.66255 10.7589 8.66255ZM14.6284 8.66255C15.1585 8.66255 15.5883 9.08793 15.5883 9.61267C15.5883 10.0732 15.6383 10.2928 15.6955 10.4848C15.7089 10.5298 15.7268 10.5843 15.7476 10.6475C15.8165 10.857 15.917 11.1628 15.9908 11.5404C16.0914 12.0556 15.751 12.554 15.2305 12.6536C14.7101 12.7532 14.2066 12.4163 14.1059 11.9011C14.0564 11.6474 14.009 11.5036 13.9496 11.3233C13.9211 11.2368 13.8898 11.1418 13.8542 11.0223C13.7438 10.6516 13.6685 10.2507 13.6685 9.61267C13.6685 9.08793 14.0983 8.66255 14.6284 8.66255ZM26.2238 11.6984C27.0165 11.6984 27.7964 12.1679 28.0664 13.5393C28.3363 14.9107 28.5479 20.2937 27.1365 23.2781C26.6731 24.2579 26.0795 24.4657 25.5767 24.4657C25.1567 24.4657 24.5868 23.9479 24.3169 23.1296C23.4843 20.6058 23.7769 14.8345 24.3169 13.4149C24.8568 11.9953 25.4312 11.6984 26.2238 11.6984Z" fill="url(#paint0_linear_11249_298)"/>
<defs>
<linearGradient id="paint0_linear_11249_298" x1="12.9484" y1="25.1189" x2="31.2637" y2="-3.15307" gradientUnits="userSpaceOnUse">
<stop stop-color="#EB2114"/>
<stop offset="1" stop-color="#FFEE58"/>
</linearGradient>
</defs>
</svg>
