<svg width="64" height="65" viewBox="0 0 64 65" fill="none" xmlns="http://www.w3.org/2000/svg">
<g filter="url(#filter0_i_1148_10038)">
<g clip-path="url(#clip0_1148_10038)">
<rect y="0.97998" width="64" height="64" rx="20" fill="url(#paint0_radial_1148_10038)"/>
<g filter="url(#filter1_dd_1148_10038)">
<rect x="16" y="15.9133" width="32" height="22.4" fill="white" fill-opacity="0.71"/>
<g filter="url(#filter2_d_1148_10038)">
<path d="M46.4 14.8467H17.6C17.1757 14.8467 16.7687 15.0153 16.4686 15.3153C16.1686 15.6154 16 16.0223 16 16.4467V38.8467C16 39.271 16.1686 39.678 16.4686 39.9781C16.7687 40.2781 17.1757 40.4467 17.6 40.4467H46.4C46.8243 40.4467 47.2313 40.2781 47.5314 39.9781C47.8314 39.678 48 39.271 48 38.8467V16.4467C48 16.0223 47.8314 15.6154 47.5314 15.3153C47.2313 15.0153 46.8243 14.8467 46.4 14.8467ZM44.8 32.4467C43.527 32.4467 42.3061 32.9524 41.4059 33.8526C40.5057 34.7527 40 35.9736 40 37.2467H24C24 35.9736 23.4943 34.7527 22.5941 33.8526C21.6939 32.9524 20.473 32.4467 19.2 32.4467V22.8467C20.473 22.8467 21.6939 22.341 22.5941 21.4408C23.4943 20.5406 24 19.3197 24 18.0467H40C40 19.3197 40.5057 20.5406 41.4059 21.4408C42.3061 22.341 43.527 22.8467 44.8 22.8467V32.4467Z" fill="white"/>
</g>
<g filter="url(#filter3_d_1148_10038)">
<path d="M32 21.2466C28.4704 21.2466 25.6 24.117 25.6 27.6466C25.6 31.1762 28.4704 34.0466 32 34.0466C35.5296 34.0466 38.4 31.1762 38.4 27.6466C38.4 24.117 35.5296 21.2466 32 21.2466ZM32 30.8466C30.2352 30.8466 28.8 29.4114 28.8 27.6466C28.8 25.8818 30.2352 24.4466 32 24.4466C33.7648 24.4466 35.2 25.8818 35.2 27.6466C35.2 29.4114 33.7648 30.8466 32 30.8466Z" fill="white"/>
</g>
<path d="M41.9185 45.6804L37.5466 48.5059H31.68V47.5578H36.4496C36.5557 47.5577 36.6598 47.5344 36.7508 47.4903C36.8419 47.4463 36.9164 47.3831 36.9665 47.3075C37.0166 47.2319 37.0403 47.1467 37.0353 47.061C37.0302 46.9754 36.9965 46.8924 36.9377 46.8211L35.8958 45.5581C35.682 45.2981 35.392 45.085 35.0515 44.9375C34.7111 44.7901 34.3308 44.7131 33.9445 44.7133H24.64C24.3288 44.7133 24.0303 44.8132 23.8103 44.991C23.5903 45.1688 23.4666 45.41 23.4666 45.6615V51.3504C23.4666 51.8533 23.7139 52.3356 24.154 52.6912C24.5941 53.0469 25.1909 53.2467 25.8133 53.2467H37.1231C37.6248 53.2467 38.1208 53.1602 38.5777 52.9927C39.0346 52.8253 39.442 52.5808 39.7725 52.2757L46.9333 45.6615L45.2296 45.2026C44.6722 45.0524 44.0772 45.0175 43.4988 45.101C42.9204 45.1844 42.3771 45.3837 41.9185 45.6804Z" fill="white"/>
<rect x="18.1333" y="43.6467" width="5.33333" height="10.6667" rx="1" fill="white" fill-opacity="0.71"/>
</g>
</g>
</g>
<defs>
<filter id="filter0_i_1148_10038" x="0" y="0.97998" width="64" height="64" filterUnits="userSpaceOnUse" color-interpolation-filters="sRGB">
<feFlood flood-opacity="0" result="BackgroundImageFix"/>
<feBlend mode="normal" in="SourceGraphic" in2="BackgroundImageFix" result="shape"/>
<feColorMatrix in="SourceAlpha" type="matrix" values="0 0 0 0 0 0 0 0 0 0 0 0 0 0 0 0 0 0 127 0" result="hardAlpha"/>
<feOffset/>
<feGaussianBlur stdDeviation="2"/>
<feComposite in2="hardAlpha" operator="arithmetic" k2="-1" k3="1"/>
<feColorMatrix type="matrix" values="0 0 0 0 0.591667 0 0 0 0 0.00246525 0 0 0 0 0.285282 0 0 0 0.25 0"/>
<feBlend mode="normal" in2="shape" result="effect1_innerShadow_1148_10038"/>
</filter>
<filter id="filter1_dd_1148_10038" x="3.79999" y="1.64667" width="66.3333" height="75.6667" filterUnits="userSpaceOnUse" color-interpolation-filters="sRGB">
<feFlood flood-opacity="0" result="BackgroundImageFix"/>
<feColorMatrix in="SourceAlpha" type="matrix" values="0 0 0 0 0 0 0 0 0 0 0 0 0 0 0 0 0 0 127 0" result="hardAlpha"/>
<feOffset dx="6" dy="9"/>
<feGaussianBlur stdDeviation="7"/>
<feComposite in2="hardAlpha" operator="out"/>
<feColorMatrix type="matrix" values="0 0 0 0 0.879167 0 0 0 0 0.0915799 0 0 0 0 0.375111 0 0 0 1 0"/>
<feBlend mode="normal" in2="BackgroundImageFix" result="effect1_dropShadow_1148_10038"/>
<feColorMatrix in="SourceAlpha" type="matrix" values="0 0 0 0 0 0 0 0 0 0 0 0 0 0 0 0 0 0 127 0" result="hardAlpha"/>
<feOffset dx="-2" dy="-3"/>
<feGaussianBlur stdDeviation="3.5"/>
<feComposite in2="hardAlpha" operator="out"/>
<feColorMatrix type="matrix" values="0 0 0 0 1 0 0 0 0 0.479167 0 0 0 0 0.947917 0 0 0 0.44 0"/>
<feBlend mode="color-dodge" in2="effect1_dropShadow_1148_10038" result="effect2_dropShadow_1148_10038"/>
<feBlend mode="normal" in="SourceGraphic" in2="effect2_dropShadow_1148_10038" result="shape"/>
</filter>
<filter id="filter2_d_1148_10038" x="13" y="11.8467" width="38" height="31.6" filterUnits="userSpaceOnUse" color-interpolation-filters="sRGB">
<feFlood flood-opacity="0" result="BackgroundImageFix"/>
<feColorMatrix in="SourceAlpha" type="matrix" values="0 0 0 0 0 0 0 0 0 0 0 0 0 0 0 0 0 0 127 0" result="hardAlpha"/>
<feOffset/>
<feGaussianBlur stdDeviation="1.5"/>
<feComposite in2="hardAlpha" operator="out"/>
<feColorMatrix type="matrix" values="0 0 0 0 0.879167 0 0 0 0 0.0915799 0 0 0 0 0.375111 0 0 0 0.34 0"/>
<feBlend mode="normal" in2="BackgroundImageFix" result="effect1_dropShadow_1148_10038"/>
<feBlend mode="normal" in="SourceGraphic" in2="effect1_dropShadow_1148_10038" result="shape"/>
</filter>
<filter id="filter3_d_1148_10038" x="22.6" y="18.2466" width="18.8" height="18.8" filterUnits="userSpaceOnUse" color-interpolation-filters="sRGB">
<feFlood flood-opacity="0" result="BackgroundImageFix"/>
<feColorMatrix in="SourceAlpha" type="matrix" values="0 0 0 0 0 0 0 0 0 0 0 0 0 0 0 0 0 0 127 0" result="hardAlpha"/>
<feOffset/>
<feGaussianBlur stdDeviation="1.5"/>
<feComposite in2="hardAlpha" operator="out"/>
<feColorMatrix type="matrix" values="0 0 0 0 0.879167 0 0 0 0 0.0915799 0 0 0 0 0.375111 0 0 0 0.34 0"/>
<feBlend mode="normal" in2="BackgroundImageFix" result="effect1_dropShadow_1148_10038"/>
<feBlend mode="normal" in="SourceGraphic" in2="effect1_dropShadow_1148_10038" result="shape"/>
</filter>
<radialGradient id="paint0_radial_1148_10038" cx="0" cy="0" r="1" gradientUnits="userSpaceOnUse" gradientTransform="translate(27.2 25.5133) rotate(73.4429) scale(41.1739)">
<stop stop-color="#FFCCE1"/>
<stop offset="1" stop-color="#FF1469"/>
</radialGradient>
<clipPath id="clip0_1148_10038">
<rect y="0.97998" width="64" height="64" rx="20" fill="white"/>
</clipPath>
</defs>
</svg>
