<svg width="24" height="24" viewBox="0 0 24 24" fill="none" xmlns="http://www.w3.org/2000/svg">
<g filter="url(#filter0_i_11249_7176)">
<g clip-path="url(#clip0_11249_7176)">
<path d="M0 12C0 8.27247 0 6.4087 0.608964 4.93853C1.42092 2.97831 2.97831 1.42092 4.93853 0.608964C6.4087 0 8.27247 0 12 0C15.7275 0 17.5913 0 19.0615 0.608964C21.0217 1.42092 22.5791 2.97831 23.391 4.93853C24 6.4087 24 8.27247 24 12C24 15.7275 24 17.5913 23.391 19.0615C22.5791 21.0217 21.0217 22.5791 19.0615 23.391C17.5913 24 15.7275 24 12 24C8.27247 24 6.4087 24 4.93853 23.391C2.97831 22.5791 1.42092 21.0217 0.608964 19.0615C0 17.5913 0 15.7275 0 12Z" fill="url(#paint0_radial_11249_7176)"/>
<g filter="url(#filter1_dd_11249_7176)">
<rect x="8.81372" y="6.42993" width="12.2283" height="8.95591" rx="1" fill="white"/>
<g filter="url(#filter2_i_11249_7176)">
<rect x="8.81372" y="7.97998" width="12.2283" height="1.55006" fill="url(#paint1_linear_11249_7176)"/>
</g>
<path d="M8.8138 7.22727C8.71546 7.21913 8.60131 7.21422 8.49781 7.21462C8.05665 7.21633 7.83873 7.33149 7.20721 7.89659C6.79525 8.26522 5.74005 9.05688 3.79804 10.4544L2.97323 11.0479V11.0703V11.3977L2.95801 17.2141L3.08837 17.5033L3.08908 17.5045L3.85599 17.4947C4.27773 17.4893 5.48887 17.4338 6.54737 17.3714C8.43473 17.2602 8.85956 17.2031 9.40552 16.9876C9.53243 16.9375 9.57433 16.9378 9.59143 16.9888C9.64235 17.141 10.0054 17.4757 10.1827 17.5339C10.6093 17.6741 11.2552 17.5919 11.5956 17.3541C11.6805 17.2948 11.7557 17.2551 11.7627 17.2659C12.0902 17.7687 12.4484 17.9685 13.0238 17.9693C13.4527 17.9699 13.6451 17.902 14.0161 17.6191C14.2666 17.4281 14.2923 17.4203 14.4751 17.4803C14.7302 17.5641 15.2942 17.523 15.5457 17.4022C16.1024 17.1348 16.516 16.5148 16.6441 15.7558L16.7065 15.3859H11.4833L11.8278 15.0414L12.9954 14.541L13.2899 14.4102L13.4207 14.3414C14.0196 14.0266 14.3034 13.8227 14.6471 13.4604C15.065 13.0198 15.2272 12.6365 15.2292 12.0852C15.2308 11.6058 15.1279 11.2991 14.8594 10.9829C14.3806 10.419 13.3815 10.4446 12.1706 11.0516C11.8148 11.23 10.9476 11.6334 9.99779 12.0623L9.76106 12.1692V12.1996L8.8138 12.6302V7.22727Z" fill="url(#paint2_radial_11249_7176)"/>
<path d="M11.8278 15.0414L11.4833 15.3859H11.5207C11.3986 15.4584 11.2043 15.6304 10.8776 15.9502C10.5374 16.2832 10.259 16.5783 10.259 16.6059C10.259 16.6334 10.3085 16.7053 10.3689 16.7655C10.593 16.9885 11.1527 16.8475 11.5078 16.4787C11.6621 16.3186 11.6847 16.251 11.7281 15.8213L11.772 15.3859H12.5282L12.468 15.9034C12.4322 16.2119 12.403 16.5458 12.4031 16.6451C12.404 17.1559 12.8865 17.4068 13.3817 17.154C13.7863 16.9475 13.8276 16.8609 13.8559 16.161C13.8698 15.8158 13.8978 15.4903 13.918 15.4378C13.9265 15.4159 13.9294 15.3989 13.9189 15.3859H14.6669L14.6379 15.5963C14.6187 15.7359 14.6029 16.043 14.6029 16.2786C14.6029 16.6601 14.6158 16.7138 14.7204 16.7695C14.7851 16.804 14.9234 16.8184 15.028 16.8014C15.4442 16.7342 15.7585 16.3226 15.8965 15.6638L15.9548 15.3859H16.7065L16.6441 15.7558C16.516 16.5148 16.1024 17.1348 15.5457 17.4022C15.2942 17.523 14.7302 17.5641 14.4751 17.4803C14.2923 17.4203 14.2666 17.4281 14.0161 17.6191C13.6451 17.902 13.4527 17.9699 13.0238 17.9693C12.4484 17.9685 12.0902 17.7687 11.7627 17.2659C11.7557 17.2551 11.6805 17.2948 11.5956 17.3541C11.2552 17.5919 10.6093 17.6741 10.1827 17.5339C10.0054 17.4757 9.64235 17.141 9.59143 16.9888C9.57433 16.9378 9.53243 16.9375 9.40552 16.9876C8.85956 17.2031 8.43473 17.2602 6.54737 17.3714C5.48887 17.4338 4.27773 17.4893 3.85599 17.4947L3.08908 17.5045L3.00897 17.3639C2.91137 17.1926 2.95926 16.9557 3.1074 16.8768C3.16535 16.8459 4.0992 16.7719 5.18249 16.7124C8.08441 16.5531 8.55301 16.5118 8.94897 16.38C9.47992 16.2034 9.77877 15.9871 10.6164 15.1734L11.3862 14.4255L12.1087 14.1271C13.4023 13.5929 14.0841 13.1268 14.3505 12.5946C14.5783 12.1395 14.5099 11.5887 14.1986 11.3716C13.931 11.1851 13.3904 11.3025 12.4382 11.754C12.1015 11.9135 11.0854 12.3829 10.1802 12.797C8.39904 13.6118 8.33713 13.6276 8.18278 13.307C8.06621 13.0648 8.17344 12.8968 8.55361 12.7261L8.8138 12.6092V12.6302L9.76106 12.1996V12.1692L9.99779 12.0623C10.9476 11.6334 11.8148 11.23 12.1706 11.0516C13.3815 10.4446 14.3806 10.419 14.8594 10.9829C15.1279 11.2991 15.2308 11.6058 15.2292 12.0852C15.2272 12.6365 15.065 13.0198 14.6471 13.4604C14.3034 13.8227 14.0196 14.0266 13.4207 14.3414L13.2899 14.4102L12.9954 14.541L11.8278 15.0414Z" fill="url(#paint3_linear_11249_7176)"/>
<path d="M8.8138 7.22727V7.9502C8.80491 7.94356 8.79507 7.93888 8.78417 7.93403C8.56379 7.8361 8.30579 7.94361 7.88761 8.30764C7.33082 8.79243 6.21706 9.63783 4.84278 10.619C3.33593 11.6948 3.32206 11.7028 3.1267 11.6096C2.99264 11.5456 2.97323 11.5054 2.97323 11.2921V11.0479L3.79804 10.4544C5.74005 9.05688 6.79525 8.26522 7.20721 7.89659C7.83873 7.33149 8.05665 7.21633 8.49781 7.21462C8.60131 7.21422 8.71546 7.21913 8.8138 7.22727Z" fill="url(#paint4_linear_11249_7176)"/>
</g>
</g>
</g>
<defs>
<filter id="filter0_i_11249_7176" x="0" y="0" width="24" height="24" filterUnits="userSpaceOnUse" color-interpolation-filters="sRGB">
<feFlood flood-opacity="0" result="BackgroundImageFix"/>
<feBlend mode="normal" in="SourceGraphic" in2="BackgroundImageFix" result="shape"/>
<feColorMatrix in="SourceAlpha" type="matrix" values="0 0 0 0 0 0 0 0 0 0 0 0 0 0 0 0 0 0 127 0" result="hardAlpha"/>
<feOffset/>
<feGaussianBlur stdDeviation="0.825"/>
<feComposite in2="hardAlpha" operator="arithmetic" k2="-1" k3="1"/>
<feColorMatrix type="matrix" values="0 0 0 0 0.4625 0 0 0 0 0.167078 0 0 0 0 0.0404688 0 0 0 0.25 0"/>
<feBlend mode="normal" in2="shape" result="effect1_innerShadow_11249_7176"/>
</filter>
<filter id="filter1_dd_11249_7176" x="0.0238622" y="3.16977" width="27.5385" height="22.2978" filterUnits="userSpaceOnUse" color-interpolation-filters="sRGB">
<feFlood flood-opacity="0" result="BackgroundImageFix"/>
<feColorMatrix in="SourceAlpha" type="matrix" values="0 0 0 0 0 0 0 0 0 0 0 0 0 0 0 0 0 0 127 0" result="hardAlpha"/>
<feOffset dx="1.9561" dy="2.93415"/>
<feGaussianBlur stdDeviation="2.28211"/>
<feColorMatrix type="matrix" values="0 0 0 0 0.8625 0 0 0 0 0.579313 0 0 0 0 0.154531 0 0 0 1 0"/>
<feBlend mode="multiply" in2="BackgroundImageFix" result="effect1_dropShadow_11249_7176"/>
<feColorMatrix in="SourceAlpha" type="matrix" values="0 0 0 0 0 0 0 0 0 0 0 0 0 0 0 0 0 0 127 0" result="hardAlpha"/>
<feOffset dx="-0.652032" dy="-0.978048"/>
<feGaussianBlur stdDeviation="1.14106"/>
<feColorMatrix type="matrix" values="0 0 0 0 1 0 0 0 0 1 0 0 0 0 1 0 0 0 0.44 0"/>
<feBlend mode="color-dodge" in2="effect1_dropShadow_11249_7176" result="effect2_dropShadow_11249_7176"/>
<feBlend mode="normal" in="SourceGraphic" in2="effect2_dropShadow_11249_7176" result="shape"/>
</filter>
<filter id="filter2_i_11249_7176" x="8.81372" y="7.97998" width="12.2283" height="2.9543" filterUnits="userSpaceOnUse" color-interpolation-filters="sRGB">
<feFlood flood-opacity="0" result="BackgroundImageFix"/>
<feBlend mode="normal" in="SourceGraphic" in2="BackgroundImageFix" result="shape"/>
<feColorMatrix in="SourceAlpha" type="matrix" values="0 0 0 0 0 0 0 0 0 0 0 0 0 0 0 0 0 0 127 0" result="hardAlpha"/>
<feOffset dy="1.40426"/>
<feGaussianBlur stdDeviation="0.702128"/>
<feComposite in2="hardAlpha" operator="arithmetic" k2="-1" k3="1"/>
<feColorMatrix type="matrix" values="0 0 0 0 0.976471 0 0 0 0 0.447059 0 0 0 0 0.0509804 0 0 0 0.5 0"/>
<feBlend mode="normal" in2="shape" result="effect1_innerShadow_11249_7176"/>
</filter>
<radialGradient id="paint0_radial_11249_7176" cx="0" cy="0" r="1" gradientUnits="userSpaceOnUse" gradientTransform="translate(10.2 9.2) rotate(73.4429) scale(15.4402)">
<stop stop-color="#FFCF6C"/>
<stop offset="1" stop-color="#FF7A00"/>
</radialGradient>
<linearGradient id="paint1_linear_11249_7176" x1="9.05446" y1="6.03219" x2="15.836" y2="21.4448" gradientUnits="userSpaceOnUse">
<stop stop-color="#FFBA52"/>
<stop offset="1" stop-color="#FF8811"/>
</linearGradient>
<radialGradient id="paint2_radial_11249_7176" cx="0" cy="0" r="1" gradientUnits="userSpaceOnUse" gradientTransform="translate(11.7261 8.49825) rotate(152.949) scale(10.8449 13.8639)">
<stop stop-color="#FFEAC8"/>
<stop offset="0.728751" stop-color="white"/>
</radialGradient>
<linearGradient id="paint3_linear_11249_7176" x1="5.76653" y1="8.49825" x2="15.4251" y2="18.3623" gradientUnits="userSpaceOnUse">
<stop stop-color="#FFD695"/>
<stop offset="1" stop-color="#F66914"/>
</linearGradient>
<linearGradient id="paint4_linear_11249_7176" x1="5.76653" y1="8.49825" x2="15.4251" y2="18.3623" gradientUnits="userSpaceOnUse">
<stop stop-color="#FFD695"/>
<stop offset="1" stop-color="#F66914"/>
</linearGradient>
<clipPath id="clip0_11249_7176">
<path d="M0 12C0 8.27247 0 6.4087 0.608964 4.93853C1.42092 2.97831 2.97831 1.42092 4.93853 0.608964C6.4087 0 8.27247 0 12 0C15.7275 0 17.5913 0 19.0615 0.608964C21.0217 1.42092 22.5791 2.97831 23.391 4.93853C24 6.4087 24 8.27247 24 12C24 15.7275 24 17.5913 23.391 19.0615C22.5791 21.0217 21.0217 22.5791 19.0615 23.391C17.5913 24 15.7275 24 12 24C8.27247 24 6.4087 24 4.93853 23.391C2.97831 22.5791 1.42092 21.0217 0.608964 19.0615C0 17.5913 0 15.7275 0 12Z" fill="white"/>
</clipPath>
</defs>
</svg>
