<svg width="24" height="24" viewBox="0 0 24 24" fill="none" xmlns="http://www.w3.org/2000/svg">
<g filter="url(#filter0_i_11249_7202)">
<g clip-path="url(#clip0_11249_7202)">
<path d="M0 12C0 8.27247 0 6.4087 0.608964 4.93853C1.42092 2.97831 2.97831 1.42092 4.93853 0.608964C6.4087 0 8.27247 0 12 0C15.7275 0 17.5913 0 19.0615 0.608964C21.0217 1.42092 22.5791 2.97831 23.391 4.93853C24 6.4087 24 8.27247 24 12C24 15.7275 24 17.5913 23.391 19.0615C22.5791 21.0217 21.0217 22.5791 19.0615 23.391C17.5913 24 15.7275 24 12 24C8.27247 24 6.4087 24 4.93853 23.391C2.97831 22.5791 1.42092 21.0217 0.608964 19.0615C0 17.5913 0 15.7275 0 12Z" fill="url(#paint0_radial_11249_7202)"/>
<g filter="url(#filter1_dd_11249_7202)">
<path d="M17.3568 7.77563H6.55748C6.39836 7.77563 6.24576 7.83885 6.13324 7.95136C6.02073 8.06387 5.95752 8.21648 5.95752 8.3756V10.7754H6.49329C7.09085 10.7754 7.64521 11.184 7.74121 11.7738C7.77045 11.946 7.76176 12.1225 7.71575 12.291C7.66973 12.4595 7.5875 12.616 7.47479 12.7494C7.36208 12.8829 7.2216 12.9901 7.06317 13.0637C6.90474 13.1372 6.73216 13.1753 6.55748 13.1753H5.95752V15.5751C5.95752 15.7343 6.02073 15.8869 6.13324 15.9994C6.24576 16.1119 6.39836 16.1751 6.55748 16.1751H17.3568C17.5159 16.1751 17.6685 16.1119 17.781 15.9994C17.8936 15.8869 17.9568 15.7343 17.9568 15.5751V13.1753H17.3568C17.1821 13.1753 17.0095 13.1372 16.8511 13.0637C16.6927 12.9901 16.5522 12.8829 16.4395 12.7494C16.3268 12.616 16.2445 12.4595 16.1985 12.291C16.1525 12.1225 16.1438 11.946 16.1731 11.7738C16.2691 11.184 16.8234 10.7754 17.421 10.7754H17.9568V8.3756C17.9568 8.21648 17.8936 8.06387 17.781 7.95136C17.6685 7.83885 17.5159 7.77563 17.3568 7.77563ZM10.1573 10.1755C10.3164 10.1755 10.469 10.2387 10.5815 10.3512C10.694 10.4637 10.7572 10.6163 10.7572 10.7754C10.7572 10.9346 10.694 11.0872 10.5815 11.1997C10.469 11.3122 10.3164 11.3754 10.1573 11.3754C9.99813 11.3754 9.84553 11.3122 9.73302 11.1997C9.6205 11.0872 9.55729 10.9346 9.55729 10.7754C9.55729 10.6163 9.6205 10.4637 9.73302 10.3512C9.84553 10.2387 9.99813 10.1755 10.1573 10.1755ZM9.67728 14.0152L13.2771 9.21554L14.237 9.9355L10.6372 14.7352L9.67728 14.0152ZM13.757 13.7753C13.5979 13.7753 13.4453 13.712 13.3328 13.5995C13.2203 13.487 13.1571 13.3344 13.1571 13.1753C13.1571 13.0162 13.2203 12.8636 13.3328 12.7511C13.4453 12.6385 13.5979 12.5753 13.757 12.5753C13.9161 12.5753 14.0687 12.6385 14.1813 12.7511C14.2938 12.8636 14.357 13.0162 14.357 13.1753C14.357 13.3344 14.2938 13.487 14.1813 13.5995C14.0687 13.712 13.9161 13.7753 13.757 13.7753Z" fill="white"/>
</g>
</g>
</g>
<defs>
<filter id="filter0_i_11249_7202" x="0" y="0" width="24" height="24" filterUnits="userSpaceOnUse" color-interpolation-filters="sRGB">
<feFlood flood-opacity="0" result="BackgroundImageFix"/>
<feBlend mode="normal" in="SourceGraphic" in2="BackgroundImageFix" result="shape"/>
<feColorMatrix in="SourceAlpha" type="matrix" values="0 0 0 0 0 0 0 0 0 0 0 0 0 0 0 0 0 0 127 0" result="hardAlpha"/>
<feOffset/>
<feGaussianBlur stdDeviation="0.814663"/>
<feComposite in2="hardAlpha" operator="arithmetic" k2="-1" k3="1"/>
<feColorMatrix type="matrix" values="0 0 0 0 0.4625 0 0 0 0 0.167078 0 0 0 0 0.0404688 0 0 0 0.25 0"/>
<feBlend mode="normal" in2="shape" result="effect1_innerShadow_11249_7202"/>
</filter>
<filter id="filter1_dd_11249_7202" x="1.09159" y="0.702566" width="26.2118" height="27.8411" filterUnits="userSpaceOnUse" color-interpolation-filters="sRGB">
<feFlood flood-opacity="0" result="BackgroundImageFix"/>
<feColorMatrix in="SourceAlpha" type="matrix" values="0 0 0 0 0 0 0 0 0 0 0 0 0 0 0 0 0 0 127 0" result="hardAlpha"/>
<feOffset dx="2.44399" dy="3.66598"/>
<feGaussianBlur stdDeviation="2.85132"/>
<feComposite in2="hardAlpha" operator="out"/>
<feColorMatrix type="matrix" values="0 0 0 0 1 0 0 0 0 0.624333 0 0 0 0 0.183333 0 0 0 1 0"/>
<feBlend mode="normal" in2="BackgroundImageFix" result="effect1_dropShadow_11249_7202"/>
<feColorMatrix in="SourceAlpha" type="matrix" values="0 0 0 0 0 0 0 0 0 0 0 0 0 0 0 0 0 0 127 0" result="hardAlpha"/>
<feOffset dx="-0.814663" dy="-1.22199"/>
<feGaussianBlur stdDeviation="1.42566"/>
<feComposite in2="hardAlpha" operator="out"/>
<feColorMatrix type="matrix" values="0 0 0 0 0.8185 0 0 0 0 1 0 0 0 0 0.5875 0 0 0 0.19 0"/>
<feBlend mode="color-dodge" in2="effect1_dropShadow_11249_7202" result="effect2_dropShadow_11249_7202"/>
<feBlend mode="normal" in="SourceGraphic" in2="effect2_dropShadow_11249_7202" result="shape"/>
</filter>
<radialGradient id="paint0_radial_11249_7202" cx="0" cy="0" r="1" gradientUnits="userSpaceOnUse" gradientTransform="translate(10.2 9.2) rotate(73.4429) scale(15.4402)">
<stop stop-color="#FEFFB5"/>
<stop offset="1" stop-color="#FFC700"/>
</radialGradient>
<clipPath id="clip0_11249_7202">
<path d="M0 12C0 8.27247 0 6.4087 0.608964 4.93853C1.42092 2.97831 2.97831 1.42092 4.93853 0.608964C6.4087 0 8.27247 0 12 0C15.7275 0 17.5913 0 19.0615 0.608964C21.0217 1.42092 22.5791 2.97831 23.391 4.93853C24 6.4087 24 8.27247 24 12C24 15.7275 24 17.5913 23.391 19.0615C22.5791 21.0217 21.0217 22.5791 19.0615 23.391C17.5913 24 15.7275 24 12 24C8.27247 24 6.4087 24 4.93853 23.391C2.97831 22.5791 1.42092 21.0217 0.608964 19.0615C0 17.5913 0 15.7275 0 12Z" fill="white"/>
</clipPath>
</defs>
</svg>
