<svg width="33" height="33" viewBox="0 0 33 33" fill="none" xmlns="http://www.w3.org/2000/svg">
<path fill-rule="evenodd" clip-rule="evenodd" d="M20.8681 9.24341H11.377C9.86214 9.24341 8.62964 10.4759 8.62964 11.9908V21.4819C8.62964 22.9968 9.86214 24.2296 11.377 24.2296H20.8681C22.383 24.2296 23.6159 22.9971 23.6159 21.4819V11.9908C23.6159 10.4759 22.3834 9.24341 20.8681 9.24341ZM16.1226 21.67C13.4025 21.67 11.1894 19.4569 11.1894 16.7364C11.1894 14.0163 13.4025 11.8032 16.1226 11.8032C18.843 11.8032 21.0561 14.0163 21.0561 16.7364C21.0561 19.4565 18.8427 21.67 16.1226 21.67ZM20.0471 11.6558C20.0471 12.2994 20.5708 12.8231 21.2147 12.8231C21.8583 12.8231 22.3819 12.2994 22.3819 11.6558C22.3819 11.0123 21.8583 10.4886 21.2147 10.4886C20.5708 10.4886 20.0471 11.0123 20.0471 11.6558Z" fill="#FF0084"/>
<path d="M16.1669 13.8276C14.5877 13.8276 13.3018 15.1129 13.3018 16.6921C13.3018 18.2721 14.5877 19.5577 16.1669 19.5577C17.7469 19.5577 19.0318 18.2721 19.0318 16.6921C19.0318 15.1132 17.7466 13.8276 16.1669 13.8276Z" fill="#FF0084"/>
<path fill-rule="evenodd" clip-rule="evenodd" d="M0.166748 16.6485C0.166748 7.83669 7.31081 0.692627 16.1227 0.692627C24.9345 0.692627 32.0786 7.83669 32.0786 16.6485C32.0786 25.4604 24.9345 32.6045 16.1227 32.6045C7.31081 32.6045 0.166748 25.4604 0.166748 16.6485ZM20.8783 26.2895C23.5487 26.2895 25.7206 24.1176 25.7206 21.4472V11.936C25.7206 9.26596 23.5487 7.09366 20.8783 7.09366H11.3671C8.69702 7.09366 6.52472 9.26596 6.52472 11.936V21.4472C6.52472 24.1176 8.69702 26.2895 11.3671 26.2895H20.8783Z" fill="#FF0084"/>
</svg>
