<svg width="20" height="21" viewBox="0 0 20 21" fill="none" xmlns="http://www.w3.org/2000/svg">
<path d="M9.99996 12.4821C11.8383 12.4821 13.3333 10.9871 13.3333 9.14876C13.3333 7.31043 11.8383 5.81543 9.99996 5.81543C8.16163 5.81543 6.66663 7.31043 6.66663 9.14876C6.66663 10.9871 8.16163 12.4821 9.99996 12.4821ZM9.99996 7.4821C10.9191 7.4821 11.6666 8.2296 11.6666 9.14876C11.6666 10.0679 10.9191 10.8154 9.99996 10.8154C9.08079 10.8154 8.33329 10.0679 8.33329 9.14876C8.33329 8.2296 9.08079 7.4821 9.99996 7.4821Z" fill="#BCC0CC"/>
<path d="M9.51666 18.9938C9.66166 19.0971 9.83082 19.1488 9.99999 19.1488C10.1692 19.1488 10.3383 19.0971 10.4833 18.9938C10.7367 18.8146 16.6908 14.5155 16.6667 9.14878C16.6667 5.47295 13.6758 2.48212 9.99999 2.48212C6.32416 2.48212 3.33333 5.47295 3.33333 9.14462C3.30916 14.5155 9.26333 18.8146 9.51666 18.9938ZM9.99999 4.14878C12.7575 4.14878 15 6.39128 15 9.15295C15.0175 12.8513 11.3433 16.1721 9.99999 17.2613C8.65749 16.1713 4.98249 12.8496 4.99999 9.14878C4.99999 6.39128 7.24249 4.14878 9.99999 4.14878Z" fill="#BCC0CC"/>
</svg>
