<svg width="24" height="24" viewBox="0 0 24 24" fill="none" xmlns="http://www.w3.org/2000/svg">
<g filter="url(#filter0_i_5933_78996)">
<g clip-path="url(#clip0_5933_78996)">
<path d="M0 12C0 8.27247 0 6.4087 0.608964 4.93853C1.42092 2.97831 2.97831 1.42092 4.93853 0.608964C6.4087 0 8.27247 0 12 0C15.7275 0 17.5913 0 19.0615 0.608964C21.0217 1.42092 22.5791 2.97831 23.391 4.93853C24 6.4087 24 8.27247 24 12C24 15.7275 24 17.5913 23.391 19.0615C22.5791 21.0217 21.0217 22.5791 19.0615 23.391C17.5913 24 15.7275 24 12 24C8.27247 24 6.4087 24 4.93853 23.391C2.97831 22.5791 1.42092 21.0217 0.608964 19.0615C0 17.5913 0 15.7275 0 12Z" fill="url(#paint0_radial_5933_78996)"/>
<g filter="url(#filter1_dd_5933_78996)">
<path d="M11.8796 5.97552C8.57143 5.97552 5.88 8.66695 5.88 11.9751C5.88 15.2833 8.57143 17.9748 11.8796 17.9748C15.1878 17.9748 17.8792 15.2833 17.8792 11.9751C17.8792 8.66695 15.1878 5.97552 11.8796 5.97552ZM14.3911 12.4191L11.8796 14.9306L9.36818 12.4191C9.213 12.2659 9.08978 12.0834 9.00568 11.8822C8.92158 11.681 8.87828 11.4652 8.87828 11.2471C8.87828 11.029 8.92158 10.8131 9.00568 10.6119C9.08978 10.4107 9.213 10.2283 9.36818 10.0751C9.52137 9.91997 9.70382 9.79683 9.90496 9.71278C10.1061 9.62874 10.3219 9.58546 10.5399 9.58546C10.7579 9.58546 10.9737 9.62874 11.1749 9.71278C11.376 9.79683 11.5585 9.91997 11.7116 10.0751L11.8796 10.2425L12.047 10.0751C12.2002 9.91997 12.3827 9.79683 12.5838 9.71278C12.7849 9.62874 13.0008 9.58546 13.2187 9.58546C13.4367 9.58546 13.6526 9.62874 13.8537 9.71278C14.0548 9.79683 14.2373 9.91997 14.3905 10.0751C14.5457 10.2282 14.669 10.4107 14.7531 10.6119C14.8373 10.813 14.8806 11.0289 14.8807 11.247C14.8807 11.465 14.8375 11.6809 14.7534 11.8821C14.6694 12.0834 14.5462 12.2659 14.3911 12.4191Z" fill="white"/>
</g>
</g>
</g>
<defs>
<filter id="filter0_i_5933_78996" x="0" y="0" width="24" height="24" filterUnits="userSpaceOnUse" color-interpolation-filters="sRGB">
<feFlood flood-opacity="0" result="BackgroundImageFix"/>
<feBlend mode="normal" in="SourceGraphic" in2="BackgroundImageFix" result="shape"/>
<feColorMatrix in="SourceAlpha" type="matrix" values="0 0 0 0 0 0 0 0 0 0 0 0 0 0 0 0 0 0 127 0" result="hardAlpha"/>
<feOffset/>
<feGaussianBlur stdDeviation="0.825"/>
<feComposite in2="hardAlpha" operator="arithmetic" k2="-1" k3="1"/>
<feColorMatrix type="matrix" values="0 0 0 0 0.302128 0 0 0 0 0.4625 0 0 0 0 0.0404688 0 0 0 0.25 0"/>
<feBlend mode="normal" in2="shape" result="effect1_innerShadow_5933_78996"/>
</filter>
<filter id="filter1_dd_5933_78996" x="1.01413" y="0.702505" width="26.2117" height="27.841" filterUnits="userSpaceOnUse" color-interpolation-filters="sRGB">
<feFlood flood-opacity="0" result="BackgroundImageFix"/>
<feColorMatrix in="SourceAlpha" type="matrix" values="0 0 0 0 0 0 0 0 0 0 0 0 0 0 0 0 0 0 127 0" result="hardAlpha"/>
<feOffset dx="2.44399" dy="3.66598"/>
<feGaussianBlur stdDeviation="2.85132"/>
<feComposite in2="hardAlpha" operator="out"/>
<feColorMatrix type="matrix" values="0 0 0 0 0.460472 0 0 0 0 0.570833 0 0 0 0 0.0190278 0 0 0 1 0"/>
<feBlend mode="normal" in2="BackgroundImageFix" result="effect1_dropShadow_5933_78996"/>
<feColorMatrix in="SourceAlpha" type="matrix" values="0 0 0 0 0 0 0 0 0 0 0 0 0 0 0 0 0 0 127 0" result="hardAlpha"/>
<feOffset dx="-0.814663" dy="-1.22199"/>
<feGaussianBlur stdDeviation="1.42566"/>
<feComposite in2="hardAlpha" operator="out"/>
<feColorMatrix type="matrix" values="0 0 0 0 0.914417 0 0 0 0 1 0 0 0 0 0.670833 0 0 0 0.51 0"/>
<feBlend mode="color-dodge" in2="effect1_dropShadow_5933_78996" result="effect2_dropShadow_5933_78996"/>
<feBlend mode="normal" in="SourceGraphic" in2="effect2_dropShadow_5933_78996" result="shape"/>
</filter>
<radialGradient id="paint0_radial_5933_78996" cx="0" cy="0" r="1" gradientUnits="userSpaceOnUse" gradientTransform="translate(10.2 9.2) rotate(73.4429) scale(15.4402)">
<stop stop-color="#F6FFC1"/>
<stop offset="1" stop-color="#96CA04"/>
</radialGradient>
<clipPath id="clip0_5933_78996">
<path d="M0 12C0 8.27247 0 6.4087 0.608964 4.93853C1.42092 2.97831 2.97831 1.42092 4.93853 0.608964C6.4087 0 8.27247 0 12 0C15.7275 0 17.5913 0 19.0615 0.608964C21.0217 1.42092 22.5791 2.97831 23.391 4.93853C24 6.4087 24 8.27247 24 12C24 15.7275 24 17.5913 23.391 19.0615C22.5791 21.0217 21.0217 22.5791 19.0615 23.391C17.5913 24 15.7275 24 12 24C8.27247 24 6.4087 24 4.93853 23.391C2.97831 22.5791 1.42092 21.0217 0.608964 19.0615C0 17.5913 0 15.7275 0 12Z" fill="white"/>
</clipPath>
</defs>
</svg>
