<svg width="24" height="24" viewBox="0 0 24 24" fill="none" xmlns="http://www.w3.org/2000/svg">
<g filter="url(#filter0_i_5933_78997)">
<g clip-path="url(#clip0_5933_78997)">
<path d="M0 12C0 8.27247 0 6.4087 0.608964 4.93853C1.42092 2.97831 2.97831 1.42092 4.93853 0.608964C6.4087 0 8.27247 0 12 0C15.7275 0 17.5913 0 19.0615 0.608964C21.0217 1.42092 22.5791 2.97831 23.391 4.93853C24 6.4087 24 8.27247 24 12C24 15.7275 24 17.5913 23.391 19.0615C22.5791 21.0217 21.0217 22.5791 19.0615 23.391C17.5913 24 15.7275 24 12 24C8.27247 24 6.4087 24 4.93853 23.391C2.97831 22.5791 1.42092 21.0217 0.608964 19.0615C0 17.5913 0 15.7275 0 12Z" fill="url(#paint0_radial_5933_78997)"/>
<g filter="url(#filter1_dd_5933_78997)">
<rect x="5.99998" y="5.60004" width="12" height="8.4" fill="white" fill-opacity="0.71"/>
<g filter="url(#filter2_d_5933_78997)">
<path d="M17.4 5.20005H6.59998C6.44085 5.20005 6.28824 5.26326 6.17572 5.37579C6.0632 5.48831 5.99998 5.64092 5.99998 5.80005V14.2C5.99998 14.3592 6.0632 14.5118 6.17572 14.6243C6.28824 14.7368 6.44085 14.8 6.59998 14.8H17.4C17.5591 14.8 17.7117 14.7368 17.8242 14.6243C17.9368 14.5118 18 14.3592 18 14.2V5.80005C18 5.64092 17.9368 5.48831 17.8242 5.37579C17.7117 5.26326 17.5591 5.20005 17.4 5.20005ZM16.8 11.8C16.3226 11.8 15.8648 11.9897 15.5272 12.3273C15.1896 12.6648 15 13.1227 15 13.6H8.99998C8.99998 13.1227 8.81034 12.6648 8.47278 12.3273C8.13521 11.9897 7.67737 11.8 7.19998 11.8V8.20005C7.67737 8.20005 8.13521 8.01041 8.47278 7.67284C8.81034 7.33528 8.99998 6.87744 8.99998 6.40005H15C15 6.87744 15.1896 7.33528 15.5272 7.67284C15.8648 8.01041 16.3226 8.20005 16.8 8.20005V11.8Z" fill="white"/>
</g>
<g filter="url(#filter3_d_5933_78997)">
<path d="M12.0001 7.6C10.6765 7.6 9.60012 8.6764 9.60012 10C9.60012 11.3236 10.6765 12.4 12.0001 12.4C13.3237 12.4 14.4001 11.3236 14.4001 10C14.4001 8.6764 13.3237 7.6 12.0001 7.6ZM12.0001 11.2C11.3383 11.2 10.8001 10.6618 10.8001 10C10.8001 9.3382 11.3383 8.8 12.0001 8.8C12.6619 8.8 13.2001 9.3382 13.2001 10C13.2001 10.6618 12.6619 11.2 12.0001 11.2Z" fill="white"/>
</g>
<path d="M15.7194 16.7627L14.08 17.8222H11.88V17.4667H13.6686C13.7084 17.4667 13.7474 17.4579 13.7816 17.4414C13.8157 17.4249 13.8437 17.4012 13.8624 17.3728C13.8812 17.3445 13.8901 17.3125 13.8882 17.2804C13.8863 17.2483 13.8737 17.2172 13.8516 17.1904L13.4609 16.7168C13.3808 16.6193 13.272 16.5394 13.1443 16.4841C13.0167 16.4288 12.874 16.3999 12.7292 16.4H9.24C9.1233 16.4 9.01139 16.4375 8.92887 16.5042C8.84636 16.5708 8.8 16.6613 8.8 16.7556V18.8889C8.8 19.0775 8.89271 19.2584 9.05775 19.3917C9.22278 19.5251 9.44661 19.6 9.68 19.6H13.9212C14.1093 19.6001 14.2953 19.5676 14.4666 19.5048C14.638 19.442 14.7908 19.3503 14.9147 19.2359L17.6 16.7556L16.9611 16.5835C16.7521 16.5272 16.529 16.5141 16.3121 16.5454C16.0952 16.5767 15.8914 16.6514 15.7194 16.7627Z" fill="white"/>
<rect x="6.80011" y="16" width="2" height="4" rx="0.999999" fill="white" fill-opacity="0.71"/>
</g>
</g>
</g>
<defs>
<filter id="filter0_i_5933_78997" x="0" y="0" width="24" height="24" filterUnits="userSpaceOnUse" color-interpolation-filters="sRGB">
<feFlood flood-opacity="0" result="BackgroundImageFix"/>
<feBlend mode="normal" in="SourceGraphic" in2="BackgroundImageFix" result="shape"/>
<feColorMatrix in="SourceAlpha" type="matrix" values="0 0 0 0 0 0 0 0 0 0 0 0 0 0 0 0 0 0 127 0" result="hardAlpha"/>
<feOffset/>
<feGaussianBlur stdDeviation="0.825"/>
<feComposite in2="hardAlpha" operator="arithmetic" k2="-1" k3="1"/>
<feColorMatrix type="matrix" values="0 0 0 0 0.591667 0 0 0 0 0.00246525 0 0 0 0 0.285282 0 0 0 0.25 0"/>
<feBlend mode="normal" in2="shape" result="effect1_innerShadow_5933_78997"/>
</filter>
<filter id="filter1_dd_5933_78997" x="-6.63831" y="-9.04252" width="52.7234" height="61.3404" filterUnits="userSpaceOnUse" color-interpolation-filters="sRGB">
<feFlood flood-opacity="0" result="BackgroundImageFix"/>
<feColorMatrix in="SourceAlpha" type="matrix" values="0 0 0 0 0 0 0 0 0 0 0 0 0 0 0 0 0 0 127 0" result="hardAlpha"/>
<feOffset dx="8.42553" dy="12.6383"/>
<feGaussianBlur stdDeviation="9.82979"/>
<feComposite in2="hardAlpha" operator="out"/>
<feColorMatrix type="matrix" values="0 0 0 0 0.879167 0 0 0 0 0.0915799 0 0 0 0 0.375111 0 0 0 1 0"/>
<feBlend mode="normal" in2="BackgroundImageFix" result="effect1_dropShadow_5933_78997"/>
<feColorMatrix in="SourceAlpha" type="matrix" values="0 0 0 0 0 0 0 0 0 0 0 0 0 0 0 0 0 0 127 0" result="hardAlpha"/>
<feOffset dx="-2.80851" dy="-4.21277"/>
<feGaussianBlur stdDeviation="4.91489"/>
<feComposite in2="hardAlpha" operator="out"/>
<feColorMatrix type="matrix" values="0 0 0 0 1 0 0 0 0 0.479167 0 0 0 0 0.947917 0 0 0 0.44 0"/>
<feBlend mode="color-dodge" in2="effect1_dropShadow_5933_78997" result="effect2_dropShadow_5933_78997"/>
<feBlend mode="normal" in="SourceGraphic" in2="effect2_dropShadow_5933_78997" result="shape"/>
</filter>
<filter id="filter2_d_5933_78997" x="1.78722" y="0.987285" width="20.4255" height="18.0255" filterUnits="userSpaceOnUse" color-interpolation-filters="sRGB">
<feFlood flood-opacity="0" result="BackgroundImageFix"/>
<feColorMatrix in="SourceAlpha" type="matrix" values="0 0 0 0 0 0 0 0 0 0 0 0 0 0 0 0 0 0 127 0" result="hardAlpha"/>
<feOffset/>
<feGaussianBlur stdDeviation="2.10638"/>
<feComposite in2="hardAlpha" operator="out"/>
<feColorMatrix type="matrix" values="0 0 0 0 0.879167 0 0 0 0 0.0915799 0 0 0 0 0.375111 0 0 0 0.34 0"/>
<feBlend mode="normal" in2="BackgroundImageFix" result="effect1_dropShadow_5933_78997"/>
<feBlend mode="normal" in="SourceGraphic" in2="effect1_dropShadow_5933_78997" result="shape"/>
</filter>
<filter id="filter3_d_5933_78997" x="5.38736" y="3.38723" width="13.2255" height="13.2255" filterUnits="userSpaceOnUse" color-interpolation-filters="sRGB">
<feFlood flood-opacity="0" result="BackgroundImageFix"/>
<feColorMatrix in="SourceAlpha" type="matrix" values="0 0 0 0 0 0 0 0 0 0 0 0 0 0 0 0 0 0 127 0" result="hardAlpha"/>
<feOffset/>
<feGaussianBlur stdDeviation="2.10638"/>
<feComposite in2="hardAlpha" operator="out"/>
<feColorMatrix type="matrix" values="0 0 0 0 0.879167 0 0 0 0 0.0915799 0 0 0 0 0.375111 0 0 0 0.34 0"/>
<feBlend mode="normal" in2="BackgroundImageFix" result="effect1_dropShadow_5933_78997"/>
<feBlend mode="normal" in="SourceGraphic" in2="effect1_dropShadow_5933_78997" result="shape"/>
</filter>
<radialGradient id="paint0_radial_5933_78997" cx="0" cy="0" r="1" gradientUnits="userSpaceOnUse" gradientTransform="translate(10.2 9.2) rotate(73.4429) scale(15.4402)">
<stop stop-color="#FFCCE1"/>
<stop offset="1" stop-color="#FF1469"/>
</radialGradient>
<clipPath id="clip0_5933_78997">
<path d="M0 12C0 8.27247 0 6.4087 0.608964 4.93853C1.42092 2.97831 2.97831 1.42092 4.93853 0.608964C6.4087 0 8.27247 0 12 0C15.7275 0 17.5913 0 19.0615 0.608964C21.0217 1.42092 22.5791 2.97831 23.391 4.93853C24 6.4087 24 8.27247 24 12C24 15.7275 24 17.5913 23.391 19.0615C22.5791 21.0217 21.0217 22.5791 19.0615 23.391C17.5913 24 15.7275 24 12 24C8.27247 24 6.4087 24 4.93853 23.391C2.97831 22.5791 1.42092 21.0217 0.608964 19.0615C0 17.5913 0 15.7275 0 12Z" fill="white"/>
</clipPath>
</defs>
</svg>
