<svg width="65" height="64" viewBox="0 0 65 64" fill="none" xmlns="http://www.w3.org/2000/svg">
<g filter="url(#filter0_i_1148_9811)">
<g clip-path="url(#clip0_1148_9811)">
<rect x="0.833344" width="64" height="64" rx="20" fill="url(#paint0_radial_1148_9811)"/>
<g filter="url(#filter1_dd_1148_9811)">
<g filter="url(#filter2_d_1148_9811)">
<circle cx="31.6333" cy="30.8" r="17" fill="white" fill-opacity="0.59" shape-rendering="crispEdges"/>
</g>
<g filter="url(#filter3_d_1148_9811)">
<circle cx="31.6333" cy="30.8" r="14" fill="white"/>
</g>
<path d="M31.6333 29.3C28.6333 29.3 28.6333 28.355 28.6333 27.8C28.6333 27.245 29.6833 26.3 31.6333 26.3C33.5833 26.3 33.7183 27.26 33.7333 27.8H36.7333C36.7131 26.7781 36.3455 25.7936 35.6912 25.0084C35.0369 24.2232 34.1348 23.6842 33.1333 23.48V21.8H30.1333V23.435C27.1333 23.93 25.6333 25.865 25.6333 27.8C25.6333 29.48 26.4133 32.3 31.6333 32.3C34.6333 32.3 34.6333 33.32 34.6333 33.8C34.6333 34.28 33.7033 35.3 31.6333 35.3C28.8733 35.3 28.6333 34.01 28.6333 33.8H25.6333C25.6333 35.18 26.6233 37.625 30.1333 38.18V39.8H33.1333V38.18C36.1333 37.67 37.6333 35.735 37.6333 33.8C37.6333 32.12 36.8533 29.3 31.6333 29.3Z" fill="white"/>
<path d="M31.6333 29.3C28.6333 29.3 28.6333 28.355 28.6333 27.8C28.6333 27.245 29.6833 26.3 31.6333 26.3C33.5833 26.3 33.7183 27.26 33.7333 27.8H36.7333C36.7131 26.7781 36.3455 25.7936 35.6912 25.0084C35.0369 24.2232 34.1348 23.6842 33.1333 23.48V21.8H30.1333V23.435C27.1333 23.93 25.6333 25.865 25.6333 27.8C25.6333 29.48 26.4133 32.3 31.6333 32.3C34.6333 32.3 34.6333 33.32 34.6333 33.8C34.6333 34.28 33.7033 35.3 31.6333 35.3C28.8733 35.3 28.6333 34.01 28.6333 33.8H25.6333C25.6333 35.18 26.6233 37.625 30.1333 38.18V39.8H33.1333V38.18C36.1333 37.67 37.6333 35.735 37.6333 33.8C37.6333 32.12 36.8533 29.3 31.6333 29.3Z" fill="url(#paint1_radial_1148_9811)"/>
</g>
</g>
</g>
<defs>
<filter id="filter0_i_1148_9811" x="0.833344" y="0" width="64" height="64" filterUnits="userSpaceOnUse" color-interpolation-filters="sRGB">
<feFlood flood-opacity="0" result="BackgroundImageFix"/>
<feBlend mode="normal" in="SourceGraphic" in2="BackgroundImageFix" result="shape"/>
<feColorMatrix in="SourceAlpha" type="matrix" values="0 0 0 0 0 0 0 0 0 0 0 0 0 0 0 0 0 0 127 0" result="hardAlpha"/>
<feOffset/>
<feGaussianBlur stdDeviation="2"/>
<feComposite in2="hardAlpha" operator="arithmetic" k2="-1" k3="1"/>
<feColorMatrix type="matrix" values="0 0 0 0 0.4625 0 0 0 0 0.167078 0 0 0 0 0.0404688 0 0 0 0.25 0"/>
<feBlend mode="normal" in2="shape" result="effect1_innerShadow_1148_9811"/>
</filter>
<filter id="filter1_dd_1148_9811" x="4.63333" y="2.79999" width="67.4" height="71.4" filterUnits="userSpaceOnUse" color-interpolation-filters="sRGB">
<feFlood flood-opacity="0" result="BackgroundImageFix"/>
<feColorMatrix in="SourceAlpha" type="matrix" values="0 0 0 0 0 0 0 0 0 0 0 0 0 0 0 0 0 0 127 0" result="hardAlpha"/>
<feOffset dx="6" dy="9"/>
<feGaussianBlur stdDeviation="7"/>
<feComposite in2="hardAlpha" operator="out"/>
<feColorMatrix type="matrix" values="0 0 0 0 1 0 0 0 0 0.624333 0 0 0 0 0.183333 0 0 0 1 0"/>
<feBlend mode="normal" in2="BackgroundImageFix" result="effect1_dropShadow_1148_9811"/>
<feColorMatrix in="SourceAlpha" type="matrix" values="0 0 0 0 0 0 0 0 0 0 0 0 0 0 0 0 0 0 127 0" result="hardAlpha"/>
<feOffset dx="-2" dy="-3"/>
<feGaussianBlur stdDeviation="3.5"/>
<feComposite in2="hardAlpha" operator="out"/>
<feColorMatrix type="matrix" values="0 0 0 0 0.8185 0 0 0 0 1 0 0 0 0 0.5875 0 0 0 0.51 0"/>
<feBlend mode="color-dodge" in2="effect1_dropShadow_1148_9811" result="effect2_dropShadow_1148_9811"/>
<feBlend mode="normal" in="SourceGraphic" in2="effect2_dropShadow_1148_9811" result="shape"/>
</filter>
<filter id="filter2_d_1148_9811" x="12.6333" y="11.8" width="38" height="38" filterUnits="userSpaceOnUse" color-interpolation-filters="sRGB">
<feFlood flood-opacity="0" result="BackgroundImageFix"/>
<feColorMatrix in="SourceAlpha" type="matrix" values="0 0 0 0 0 0 0 0 0 0 0 0 0 0 0 0 0 0 127 0" result="hardAlpha"/>
<feOffset/>
<feGaussianBlur stdDeviation="1"/>
<feComposite in2="hardAlpha" operator="out"/>
<feColorMatrix type="matrix" values="0 0 0 0 0.875 0 0 0 0 0.374792 0 0 0 0 0.160417 0 0 0 0.24 0"/>
<feBlend mode="normal" in2="BackgroundImageFix" result="effect1_dropShadow_1148_9811"/>
<feBlend mode="normal" in="SourceGraphic" in2="effect1_dropShadow_1148_9811" result="shape"/>
</filter>
<filter id="filter3_d_1148_9811" x="15.6333" y="14.8" width="32" height="32" filterUnits="userSpaceOnUse" color-interpolation-filters="sRGB">
<feFlood flood-opacity="0" result="BackgroundImageFix"/>
<feColorMatrix in="SourceAlpha" type="matrix" values="0 0 0 0 0 0 0 0 0 0 0 0 0 0 0 0 0 0 127 0" result="hardAlpha"/>
<feOffset/>
<feGaussianBlur stdDeviation="1"/>
<feComposite in2="hardAlpha" operator="out"/>
<feColorMatrix type="matrix" values="0 0 0 0 0.875 0 0 0 0 0.374792 0 0 0 0 0.160417 0 0 0 0.24 0"/>
<feBlend mode="normal" in2="BackgroundImageFix" result="effect1_dropShadow_1148_9811"/>
<feBlend mode="normal" in="SourceGraphic" in2="effect1_dropShadow_1148_9811" result="shape"/>
</filter>
<radialGradient id="paint0_radial_1148_9811" cx="0" cy="0" r="1" gradientUnits="userSpaceOnUse" gradientTransform="translate(28.0333 24.5333) rotate(73.4429) scale(41.1739)">
<stop stop-color="#FEFFB5"/>
<stop offset="1" stop-color="#FFC700"/>
</radialGradient>
<radialGradient id="paint1_radial_1148_9811" cx="0" cy="0" r="1" gradientUnits="userSpaceOnUse" gradientTransform="translate(25.6333 21.8) rotate(67.9247) scale(19.424 13.5611)">
<stop stop-color="#FEFFB5"/>
<stop offset="1" stop-color="#FFC700"/>
</radialGradient>
<clipPath id="clip0_1148_9811">
<rect x="0.833344" width="64" height="64" rx="20" fill="white"/>
</clipPath>
</defs>
</svg>
