<svg width="24" height="24" viewBox="0 0 24 24" fill="none" xmlns="http://www.w3.org/2000/svg">
<g filter="url(#filter0_i_5933_78995)">
<g clip-path="url(#clip0_5933_78995)">
<path d="M0 12C0 8.27247 0 6.4087 0.608964 4.93853C1.42092 2.97831 2.97831 1.42092 4.93853 0.608964C6.4087 0 8.27247 0 12 0C15.7275 0 17.5913 0 19.0615 0.608964C21.0217 1.42092 22.5791 2.97831 23.391 4.93853C24 6.4087 24 8.27247 24 12C24 15.7275 24 17.5913 23.391 19.0615C22.5791 21.0217 21.0217 22.5791 19.0615 23.391C17.5913 24 15.7275 24 12 24C8.27247 24 6.4087 24 4.93853 23.391C2.97831 22.5791 1.42092 21.0217 0.608964 19.0615C0 17.5913 0 15.7275 0 12Z" fill="url(#paint0_radial_5933_78995)"/>
<g filter="url(#filter1_dd_5933_78995)">
<rect x="8.81369" y="6.42996" width="12.2283" height="8.95591" rx="1" fill="white"/>
<g filter="url(#filter2_i_5933_78995)">
<rect x="8.81369" y="7.98003" width="12.2283" height="1.55006" fill="url(#paint1_linear_5933_78995)"/>
</g>
<path d="M8.81371 7.22727C8.71537 7.21913 8.60122 7.21422 8.49772 7.21462C8.05656 7.21633 7.83865 7.33149 7.20713 7.89659C6.79516 8.26522 5.73996 9.05688 3.79795 10.4544L2.97314 11.0479V11.0703V11.3977L2.95792 17.2141L3.08829 17.5033L3.089 17.5045L3.8559 17.4947C4.27764 17.4893 5.48879 17.4338 6.54729 17.3714C8.43465 17.2602 8.85947 17.2031 9.40543 16.9876C9.53234 16.9375 9.57424 16.9378 9.59135 16.9888C9.64227 17.141 10.0053 17.4757 10.1826 17.5339C10.6092 17.6741 11.2551 17.5919 11.5955 17.3541C11.6804 17.2948 11.7556 17.2551 11.7627 17.2659C12.0902 17.7687 12.4483 17.9685 13.0237 17.9693C13.4526 17.9699 13.645 17.902 14.016 17.6191C14.2665 17.4281 14.2922 17.4203 14.475 17.4803C14.7301 17.5641 15.2941 17.523 15.5456 17.4022C16.1023 17.1348 16.5159 16.5148 16.644 15.7558L16.7064 15.3859H11.4833L11.8277 15.0414L12.9953 14.541L13.2898 14.4102L13.4206 14.3414C14.0195 14.0266 14.3033 13.8227 14.647 13.4604C15.0649 13.0198 15.2272 12.6365 15.2291 12.0852C15.2307 11.6058 15.1278 11.2991 14.8593 10.9829C14.3805 10.419 13.3814 10.4446 12.1706 11.0516C11.8147 11.23 10.9475 11.6334 9.9977 12.0623L9.76097 12.1692V12.1996L8.81371 12.6302V7.22727Z" fill="url(#paint2_radial_5933_78995)"/>
<path d="M11.8277 15.0414L11.4833 15.3859H11.5206C11.3985 15.4584 11.2042 15.6304 10.8775 15.9502C10.5373 16.2832 10.2589 16.5783 10.2589 16.6059C10.2589 16.6334 10.3084 16.7053 10.3689 16.7655C10.5929 16.9885 11.1526 16.8475 11.5077 16.4787C11.662 16.3186 11.6846 16.251 11.728 15.8213L11.7719 15.3859H12.5281L12.4679 15.9034C12.4321 16.2119 12.4029 16.5458 12.403 16.6451C12.4039 17.1559 12.8864 17.4068 13.3816 17.154C13.7862 16.9475 13.8275 16.8609 13.8558 16.161C13.8697 15.8158 13.8977 15.4903 13.9179 15.4378C13.9264 15.4159 13.9293 15.3989 13.9189 15.3859H14.6668L14.6378 15.5963C14.6186 15.7359 14.6028 16.043 14.6028 16.2786C14.6028 16.6601 14.6157 16.7138 14.7203 16.7695C14.785 16.804 14.9234 16.8184 15.0279 16.8014C15.4441 16.7342 15.7584 16.3226 15.8965 15.6638L15.9547 15.3859H16.7064L16.644 15.7558C16.5159 16.5148 16.1023 17.1348 15.5456 17.4022C15.2941 17.523 14.7301 17.5641 14.475 17.4803C14.2922 17.4203 14.2665 17.4281 14.016 17.6191C13.645 17.902 13.4526 17.9699 13.0237 17.9693C12.4483 17.9685 12.0902 17.7687 11.7627 17.2659C11.7556 17.2551 11.6804 17.2948 11.5955 17.3541C11.2551 17.5919 10.6092 17.6741 10.1826 17.5339C10.0053 17.4757 9.64227 17.141 9.59135 16.9888C9.57424 16.9378 9.53234 16.9375 9.40543 16.9876C8.85947 17.2031 8.43465 17.2602 6.54729 17.3714C5.48879 17.4338 4.27764 17.4893 3.8559 17.4947L3.089 17.5045L3.00889 17.3639C2.91128 17.1926 2.95917 16.9557 3.10731 16.8768C3.16526 16.8459 4.09911 16.7719 5.1824 16.7124C8.08432 16.5531 8.55293 16.5118 8.94888 16.38C9.47984 16.2034 9.77868 15.9871 10.6163 15.1734L11.3861 14.4255L12.1086 14.1271C13.4022 13.5929 14.084 13.1268 14.3504 12.5946C14.5782 12.1395 14.5098 11.5887 14.1985 11.3716C13.931 11.1851 13.3903 11.3025 12.4381 11.754C12.1014 11.9135 11.0853 12.3829 10.1801 12.797C8.39896 13.6118 8.33704 13.6276 8.18269 13.307C8.06613 13.0648 8.17335 12.8968 8.55353 12.7261L8.81371 12.6092V12.6302L9.76097 12.1996V12.1692L9.9977 12.0623C10.9475 11.6334 11.8147 11.23 12.1706 11.0516C13.3814 10.4446 14.3805 10.419 14.8593 10.9829C15.1278 11.2991 15.2307 11.6058 15.2291 12.0852C15.2272 12.6365 15.0649 13.0198 14.647 13.4604C14.3033 13.8227 14.0195 14.0266 13.4206 14.3414L13.2898 14.4102L12.9953 14.541L11.8277 15.0414Z" fill="url(#paint3_linear_5933_78995)"/>
<path d="M8.81371 7.22727V7.9502C8.80483 7.94356 8.79499 7.93888 8.78409 7.93403C8.5637 7.8361 8.30571 7.94361 7.88753 8.30764C7.33074 8.79243 6.21698 9.63783 4.8427 10.619C3.33584 11.6948 3.32198 11.7028 3.12661 11.6096C2.99255 11.5456 2.97314 11.5054 2.97314 11.2921V11.0479L3.79795 10.4544C5.73996 9.05688 6.79516 8.26522 7.20713 7.89659C7.83865 7.33149 8.05656 7.21633 8.49772 7.21462C8.60122 7.21422 8.71537 7.21913 8.81371 7.22727Z" fill="url(#paint4_linear_5933_78995)"/>
</g>
</g>
</g>
<defs>
<filter id="filter0_i_5933_78995" x="0" y="0" width="24" height="24" filterUnits="userSpaceOnUse" color-interpolation-filters="sRGB">
<feFlood flood-opacity="0" result="BackgroundImageFix"/>
<feBlend mode="normal" in="SourceGraphic" in2="BackgroundImageFix" result="shape"/>
<feColorMatrix in="SourceAlpha" type="matrix" values="0 0 0 0 0 0 0 0 0 0 0 0 0 0 0 0 0 0 127 0" result="hardAlpha"/>
<feOffset/>
<feGaussianBlur stdDeviation="0.825"/>
<feComposite in2="hardAlpha" operator="arithmetic" k2="-1" k3="1"/>
<feColorMatrix type="matrix" values="0 0 0 0 0.4625 0 0 0 0 0.167078 0 0 0 0 0.0404688 0 0 0 0.25 0"/>
<feBlend mode="normal" in2="shape" result="effect1_innerShadow_5933_78995"/>
</filter>
<filter id="filter1_dd_5933_78995" x="0.0237754" y="3.1698" width="27.5385" height="22.2979" filterUnits="userSpaceOnUse" color-interpolation-filters="sRGB">
<feFlood flood-opacity="0" result="BackgroundImageFix"/>
<feColorMatrix in="SourceAlpha" type="matrix" values="0 0 0 0 0 0 0 0 0 0 0 0 0 0 0 0 0 0 127 0" result="hardAlpha"/>
<feOffset dx="1.9561" dy="2.93415"/>
<feGaussianBlur stdDeviation="2.28211"/>
<feColorMatrix type="matrix" values="0 0 0 0 0.8625 0 0 0 0 0.579313 0 0 0 0 0.154531 0 0 0 1 0"/>
<feBlend mode="multiply" in2="BackgroundImageFix" result="effect1_dropShadow_5933_78995"/>
<feColorMatrix in="SourceAlpha" type="matrix" values="0 0 0 0 0 0 0 0 0 0 0 0 0 0 0 0 0 0 127 0" result="hardAlpha"/>
<feOffset dx="-0.652032" dy="-0.978048"/>
<feGaussianBlur stdDeviation="1.14106"/>
<feColorMatrix type="matrix" values="0 0 0 0 1 0 0 0 0 1 0 0 0 0 1 0 0 0 0.44 0"/>
<feBlend mode="color-dodge" in2="effect1_dropShadow_5933_78995" result="effect2_dropShadow_5933_78995"/>
<feBlend mode="normal" in="SourceGraphic" in2="effect2_dropShadow_5933_78995" result="shape"/>
</filter>
<filter id="filter2_i_5933_78995" x="8.81369" y="7.98003" width="12.2283" height="2.95432" filterUnits="userSpaceOnUse" color-interpolation-filters="sRGB">
<feFlood flood-opacity="0" result="BackgroundImageFix"/>
<feBlend mode="normal" in="SourceGraphic" in2="BackgroundImageFix" result="shape"/>
<feColorMatrix in="SourceAlpha" type="matrix" values="0 0 0 0 0 0 0 0 0 0 0 0 0 0 0 0 0 0 127 0" result="hardAlpha"/>
<feOffset dy="1.40426"/>
<feGaussianBlur stdDeviation="0.702128"/>
<feComposite in2="hardAlpha" operator="arithmetic" k2="-1" k3="1"/>
<feColorMatrix type="matrix" values="0 0 0 0 0.976471 0 0 0 0 0.447059 0 0 0 0 0.0509804 0 0 0 0.5 0"/>
<feBlend mode="normal" in2="shape" result="effect1_innerShadow_5933_78995"/>
</filter>
<radialGradient id="paint0_radial_5933_78995" cx="0" cy="0" r="1" gradientUnits="userSpaceOnUse" gradientTransform="translate(10.2 9.2) rotate(73.4429) scale(15.4402)">
<stop stop-color="#FFCF6C"/>
<stop offset="1" stop-color="#FF7A00"/>
</radialGradient>
<linearGradient id="paint1_linear_5933_78995" x1="9.05444" y1="6.03224" x2="15.836" y2="21.4448" gradientUnits="userSpaceOnUse">
<stop stop-color="#FFBA52"/>
<stop offset="1" stop-color="#FF8811"/>
</linearGradient>
<radialGradient id="paint2_radial_5933_78995" cx="0" cy="0" r="1" gradientUnits="userSpaceOnUse" gradientTransform="translate(11.726 8.49825) rotate(152.949) scale(10.8449 13.8639)">
<stop stop-color="#FFEAC8"/>
<stop offset="0.728751" stop-color="white"/>
</radialGradient>
<linearGradient id="paint3_linear_5933_78995" x1="5.76645" y1="8.49825" x2="15.425" y2="18.3623" gradientUnits="userSpaceOnUse">
<stop stop-color="#FFD695"/>
<stop offset="1" stop-color="#F66914"/>
</linearGradient>
<linearGradient id="paint4_linear_5933_78995" x1="5.76645" y1="8.49825" x2="15.425" y2="18.3623" gradientUnits="userSpaceOnUse">
<stop stop-color="#FFD695"/>
<stop offset="1" stop-color="#F66914"/>
</linearGradient>
<clipPath id="clip0_5933_78995">
<path d="M0 12C0 8.27247 0 6.4087 0.608964 4.93853C1.42092 2.97831 2.97831 1.42092 4.93853 0.608964C6.4087 0 8.27247 0 12 0C15.7275 0 17.5913 0 19.0615 0.608964C21.0217 1.42092 22.5791 2.97831 23.391 4.93853C24 6.4087 24 8.27247 24 12C24 15.7275 24 17.5913 23.391 19.0615C22.5791 21.0217 21.0217 22.5791 19.0615 23.391C17.5913 24 15.7275 24 12 24C8.27247 24 6.4087 24 4.93853 23.391C2.97831 22.5791 1.42092 21.0217 0.608964 19.0615C0 17.5913 0 15.7275 0 12Z" fill="white"/>
</clipPath>
</defs>
</svg>
