<svg width="33" height="33" viewBox="0 0 33 33" fill="none" xmlns="http://www.w3.org/2000/svg">
<rect x="0.833252" y="0.692627" width="32" height="32" rx="16" fill="#1DA1F2"/>
<path d="M24.6733 13.234C24.6733 13.4094 24.6733 13.5847 24.6733 13.7347C24.6733 18.9094 20.7267 24.8847 13.5267 24.8847C11.3 24.8847 9.24667 24.234 7.5 23.1347C7.8 23.1594 8.12667 23.1847 8.42667 23.1847C10.2467 23.1847 11.9467 22.5594 13.3 21.5094C11.5733 21.4847 10.1267 20.3347 9.65333 18.7847C9.9 18.8347 10.1267 18.8594 10.4 18.8594C10.7533 18.8594 11.1 18.8094 11.4267 18.7094C9.62667 18.3594 8.27333 16.7847 8.27333 14.8847C8.27333 14.8594 8.27333 14.8594 8.27333 14.8347C8.8 15.1347 9.4 15.3094 10.0533 15.3347C9 14.6347 8.3 13.4347 8.3 12.0594C8.3 11.3347 8.5 10.6594 8.82667 10.0847C10.7533 12.4594 13.6467 14.0094 16.9 14.1847C16.8267 13.9094 16.8 13.5847 16.8 13.2847C16.8 11.1094 18.5467 9.35938 20.7267 9.35938C21.8467 9.35938 22.8733 9.83471 23.5733 10.5847C24.4733 10.4094 25.3 10.0847 26.0733 9.63471C25.7733 10.5594 25.1533 11.3094 24.3467 11.8094C25.1533 11.7094 25.9 11.5094 26.6 11.1847C26.1 11.9847 25.4533 12.6847 24.6733 13.234Z" fill="white"/>
</svg>
