<svg width="42" height="43" viewBox="0 0 42 43" fill="none" xmlns="http://www.w3.org/2000/svg">
<path d="M1 21.8154C1 10.7697 9.95431 1.81543 21 1.81543C32.0457 1.81543 41 10.7697 41 21.8154C41 32.8611 32.0457 41.8154 21 41.8154C9.95431 41.8154 1 32.8611 1 21.8154Z" fill="white"/>
<path d="M28.5303 25.8458C28.2641 26.112 27.8474 26.1362 27.5538 25.9184L27.4697 25.8458L21 19.3764L14.5303 25.8458C14.2641 26.112 13.8474 26.1362 13.5538 25.9184L13.4697 25.8458C13.2034 25.5795 13.1792 25.1628 13.3971 24.8692L13.4697 24.7851L20.4697 17.7851C20.7359 17.5188 21.1526 17.4946 21.4462 17.7125L21.5303 17.7851L28.5303 24.7851C28.8232 25.078 28.8232 25.5529 28.5303 25.8458Z" fill="#333333"/>
<path d="M21 40.8154C10.5066 40.8154 2 32.3088 2 21.8154H0C0 33.4134 9.40202 42.8154 21 42.8154V40.8154ZM40 21.8154C40 32.3088 31.4934 40.8154 21 40.8154V42.8154C32.598 42.8154 42 33.4134 42 21.8154H40ZM21 2.81543C31.4934 2.81543 40 11.322 40 21.8154H42C42 10.2175 32.598 0.81543 21 0.81543V2.81543ZM21 0.81543C9.40202 0.81543 0 10.2175 0 21.8154H2C2 11.322 10.5066 2.81543 21 2.81543V0.81543Z" fill="#DDE1EB"/>
</svg>
