<svg width="32" height="32" viewBox="0 0 32 32" fill="none" xmlns="http://www.w3.org/2000/svg">
<rect width="32" height="32" rx="16" fill="#FF0000"/>
<path fill-rule="evenodd" clip-rule="evenodd" d="M23.8267 9.42666C24.68 9.65732 25.36 10.3327 25.5867 11.1893C26.0133 12.7547 26 16.0167 26 16.0167C26 16.0167 26 19.262 25.5867 20.8267C25.36 21.6833 24.68 22.3593 23.8267 22.59C22.26 23.0013 16 23.0013 16 23.0013C16 23.0013 9.75333 23.0013 8.17333 22.5733C7.32 22.3427 6.64 21.6673 6.41333 20.8107C6 19.262 6 16 6 16C6 16 6 12.7547 6.41333 11.1893C6.64 10.3327 7.33333 9.64066 8.17333 9.40999C9.74 8.99866 16 8.99866 16 8.99866C16 8.99866 22.26 8.99866 23.8267 9.42666ZM19.2133 16L14.0067 18.998V13.0013L19.2133 16Z" fill="white"/>
</svg>
